HIERARCHY
ROOT Hips
{
	OFFSET 51.797501 -14.872115 94.208900
	CHANNELS 6 Xposition Yposition Zposition Xrotation Yrotation Zrotation
	JOINT spine
	{
		OFFSET 0.000000 -0.448574 7.800583
		CHANNELS 3 Xrotation Yrotation Zrotation
		JOINT spine1
		{
			OFFSET 0.000000 -0.000002 10.136398
			CHANNELS 3 Xrotation Yrotation Zrotation
			JOINT spine2
			{
				OFFSET 0.000000 -0.000002 9.712509
				CHANNELS 3 Xrotation Yrotation Zrotation
				JOINT Neck
				{
					OFFSET 0.000000 -1.188874 24.936104
					CHANNELS 3 Xrotation Yrotation Zrotation
					JOINT Head
					{
						OFFSET 0.000000 0.000000 7.533844
						CHANNELS 3 Xrotation Yrotation Zrotation
						End Site
						{
							OFFSET 0.000000 6.014017 18.236099
						}
					}
				}
				JOINT RightShoulder
				{
					OFFSET -4.089649 0.569455 10.488808
					CHANNELS 3 Xrotation Yrotation Zrotation
					JOINT RightArm
					{
						OFFSET 0.000000 -0.000002 13.757004
						CHANNELS 3 Xrotation Yrotation Zrotation
						JOINT RightArmRoll
						{
							OFFSET 0.000000 -0.000001 6.944778
							CHANNELS 3 Xrotation Yrotation Zrotation
							JOINT RightForeArm
							{
								OFFSET 0.000000 -0.000004 20.227692
								CHANNELS 3 Xrotation Yrotation Zrotation
								JOINT RightForeArmRoll
								{
									OFFSET 0.000000 -0.000001 7.793121
									CHANNELS 3 Xrotation Yrotation Zrotation
									JOINT RightHand
									{
										OFFSET 0.000000 -0.000003 15.639099
										CHANNELS 3 Xrotation Yrotation Zrotation
										End Site
										{
											OFFSET 0.000000 0.000000 0.100006
										}
									}
								}
							}
						}
					}
				}
				JOINT LeftShoulder
				{
					OFFSET 4.089649 0.569455 10.488808
					CHANNELS 3 Xrotation Yrotation Zrotation
					JOINT LeftArm
					{
						OFFSET 0.000000 -0.000002 13.757004
						CHANNELS 3 Xrotation Yrotation Zrotation
						JOINT LeftArmRoll
						{
							OFFSET 0.000000 -0.000001 6.944778
							CHANNELS 3 Xrotation Yrotation Zrotation
							JOINT LeftForeArm
							{
								OFFSET 0.000000 -0.000004 20.227692
								CHANNELS 3 Xrotation Yrotation Zrotation
								JOINT LeftForeArmRoll
								{
									OFFSET 0.000000 -0.000001 7.793121
									CHANNELS 3 Xrotation Yrotation Zrotation
									JOINT LeftHand
									{
										OFFSET 0.000000 -0.000003 15.639099
										CHANNELS 3 Xrotation Yrotation Zrotation
										End Site
										{
											OFFSET 0.000000 0.000000 0.100006
										}
									}
								}
							}
						}
					}
				}
			}
		}
	}
	JOINT RightUpLeg
	{
		OFFSET -6.914150 1.063581 -1.267868
		CHANNELS 3 Xrotation Yrotation Zrotation
		JOINT RightUpLegRoll
		{
			OFFSET 0.000000 -0.000003 18.337799
			CHANNELS 3 Xrotation Yrotation Zrotation
			JOINT RightLeg
			{
				OFFSET 0.000000 0.000004 -22.708504
				CHANNELS 3 Xrotation Yrotation Zrotation
				JOINT RightLegRoll
				{
					OFFSET 0.000000 -0.000004 22.782799
					CHANNELS 3 Xrotation Yrotation Zrotation
					JOINT RightFoot
					{
						OFFSET 0.000000 -0.000003 18.962898
						CHANNELS 3 Xrotation Yrotation Zrotation
						JOINT RightToeBase
						{
							OFFSET 0.000000 -0.000003 15.852005
							CHANNELS 3 Xrotation Yrotation Zrotation
							End Site
							{
								OFFSET 0.006718 0.884891 7.677017
							}
						}
					}
				}
			}
		}
	}
	JOINT LeftUpLeg
	{
		OFFSET 6.914150 1.063581 -1.267868
		CHANNELS 3 Xrotation Yrotation Zrotation
		JOINT LeftUpLegRoll
		{
			OFFSET 0.000000 -0.000003 18.337898
			CHANNELS 3 Xrotation Yrotation Zrotation
			JOINT LeftLeg
			{
				OFFSET 0.000000 -0.000004 22.708405
				CHANNELS 3 Xrotation Yrotation Zrotation
				JOINT LeftLegRoll
				{
					OFFSET 0.000000 -0.000004 22.993408
					CHANNELS 3 Xrotation Yrotation Zrotation
					JOINT LeftFoot
					{
						OFFSET 0.000000 -0.000003 18.752197
						CHANNELS 3 Xrotation Yrotation Zrotation
						JOINT LeftToeBase
						{
							OFFSET 0.000000 -0.000003 15.852005
							CHANNELS 3 Xrotation Yrotation Zrotation
							End Site
							{
								OFFSET -0.030113 0.884892 7.677002
							}
						}
					}
				}
			}
		}
	}
}
MOTION
Frames: 10
Frame Time: 0.041667
50.722298 -13.956317 93.953796 -7.344355 1.109802 -1.124707 -0.260573 -0.122287 0.042277 3.481792 -0.245048 0.085177 5.126868 -0.244010 0.088107 20.307626 1.130055 -0.730681 -15.873901 -0.826932 -0.724120 -19.504418 -75.049818 -22.982736 114.213829 -97.998612 54.101826 -0.000000 0.000013 0.000002 125.409308 17.362413 -48.470987 -0.000004 0.000009 -2.999990 -5.000273 -7.998729 0.000209 -1.096385 49.160601 0.097612 -71.481570 127.184857 83.525420 -0.000004 -0.000005 0.000002 113.192463 -2.491951 10.959424 -0.000000 0.000005 3.000009 -5.000222 7.999241 -0.000102 2.885764 -181.785758 -2.079312 -179.999991 0.000005 -1.162999 167.736523 -0.200319 -0.665549 -0.000007 -0.000005 0.237596 72.249994 6.805978 2.132669 25.464538 -7.355619 0.002548 1.861678 -180.720631 5.591888 -0.000004 -0.000004 -1.471100 -15.082000 5.023438 0.913162 -0.000009 0.000001 -0.307896 74.544398 -7.646339 0.575880 25.456962 7.355625 -0.000005 
50.712799 -13.950512 93.954590 -7.343800 1.139329 -1.431833 -0.262808 -0.116837 0.034389 3.477298 -0.234127 0.069371 5.122373 -0.233280 0.072172 20.334923 0.729859 -0.519021 -15.839794 -0.277884 -0.502556 -19.812941 -75.175377 -23.315901 116.726376 -98.349834 56.538209 -0.000001 0.000014 -0.000001 125.525531 17.419858 -48.726296 -0.000002 0.000009 -2.999993 -5.000271 -7.998732 0.000209 -0.880555 48.966347 -0.196795 -71.869033 127.594258 83.495955 -0.000002 -0.000008 0.000004 112.724943 -2.404658 10.628279 -0.000000 0.000007 3.000013 -5.000219 7.999243 -0.000105 2.820072 -181.758874 -2.071847 -179.999991 0.000005 -1.162002 167.691731 -0.194425 -0.667419 -0.000005 -0.000005 0.236505 72.222024 6.798907 2.154863 25.464542 -7.355619 0.002548 1.925135 -180.704621 5.584626 -0.000005 -0.000004 -1.471980 -15.046615 5.047246 0.913184 -0.000009 0.000001 -0.305371 74.538647 -7.643268 0.566406 25.456960 7.355626 -0.000005 
50.716900 -13.972618 93.957184 -7.343240 1.168926 -1.739861 -0.264525 -0.111387 0.026695 3.473846 -0.223182 0.053954 5.118929 -0.222520 0.056625 20.355658 0.332798 -0.308595 -15.800482 0.266816 -0.283113 -20.117537 -75.296682 -23.644365 118.990010 -98.706383 58.737469 -0.000001 0.000014 0.000001 125.638639 17.472599 -48.969676 -0.000001 0.000007 -2.999991 -5.000276 -7.998729 0.000209 -0.675093 48.768432 -0.479236 -72.241709 128.010203 83.447003 -0.000002 -0.000008 0.000006 112.249255 -2.317179 10.296707 -0.000004 0.000006 3.000012 -5.000228 7.999237 -0.000103 2.754390 -181.731021 -2.062746 -179.999991 0.000005 -1.159993 167.646720 -0.190482 -0.669721 -0.000006 -0.000006 0.235435 72.193802 6.792268 2.175837 25.464540 -7.355619 0.002548 1.989702 -180.687614 5.577455 -0.000005 -0.000004 -1.472910 -15.009930 5.071158 0.913082 -0.000010 0.000001 -0.302921 74.533155 -7.640701 0.558383 25.456962 7.355625 -0.000005 
50.710999 -13.956615 93.955894 -7.342910 1.199247 -2.048652 -0.265676 -0.106038 0.019115 3.471525 -0.212425 0.038766 5.116605 -0.211945 0.041310 20.371111 -0.061202 -0.099000 -15.757310 0.806878 -0.065340 -20.418497 -75.414830 -23.968488 121.036116 -99.064975 60.731856 -0.000001 0.000015 -0.000000 125.747935 17.520344 -49.199881 -0.000002 0.000006 -2.999995 -5.000274 -7.998729 0.000208 -0.481636 48.565691 -0.747727 -72.599358 128.431517 83.380183 -0.000001 -0.000004 0.000004 111.763458 -2.230204 9.966779 -0.000002 0.000004 3.000010 -5.000224 7.999241 -0.000104 2.689762 -181.704151 -2.052288 -179.999991 0.000005 -1.158996 167.603335 -0.188503 -0.671432 -0.000006 -0.000006 0.234347 72.164712 6.786146 2.195141 25.464543 -7.355619 0.002548 2.055591 -180.671590 5.569767 -0.000005 -0.000004 -1.473880 -14.972038 5.095164 0.912856 -0.000010 0.000001 -0.300573 74.528408 -7.638761 0.552425 25.456960 7.355626 -0.000005 
50.711395 -13.971718 93.958389 -7.343074 1.230994 -2.358068 -0.266225 -0.100891 0.011568 3.470413 -0.202066 0.023649 5.115492 -0.201768 0.026070 20.382160 -0.452197 0.110202 -15.711419 1.341995 0.151261 -20.716208 -75.530889 -24.288743 122.895635 -99.423089 62.553468 -0.000001 0.000013 -0.000000 125.853120 17.562259 -49.415579 0.000003 0.000006 -2.999986 -5.000268 -7.998730 0.000212 -0.301818 48.356906 -1.000293 -72.937357 128.858677 83.291404 -0.000001 -0.000003 -0.000000 111.265482 -2.143855 9.637520 -0.000000 0.000003 3.000010 -5.000227 7.999243 -0.000101 2.627259 -181.677267 -2.040601 -179.999991 0.000005 -1.157999 167.563023 -0.189447 -0.673787 -0.000006 -0.000005 0.233199 72.133860 6.780756 2.212566 25.464540 -7.355619 0.002548 2.122979 -180.656577 5.561032 -0.000005 -0.000004 -1.474901 -14.933143 5.119236 0.912500 -0.000009 0.000001 -0.298353 74.524740 -7.637679 0.549225 25.456964 7.355625 -0.000005 
50.702301 -13.963219 93.963501 -7.343987 1.264832 -2.667967 -0.266137 -0.096050 0.003975 3.470570 -0.192317 0.008442 5.115650 -0.192201 0.010748 20.389891 -0.840229 0.319479 -15.664074 1.871836 0.367240 -21.011252 -75.645957 -24.605772 124.594672 -99.778422 64.229555 -0.000002 0.000013 0.000002 125.953183 17.599296 -49.615891 0.000003 0.000006 -2.999992 -5.000272 -7.998729 0.000214 -0.137243 48.140819 -1.234984 -73.252351 129.291478 83.178344 -0.000004 -0.000004 0.000004 110.753143 -2.059553 9.309170 -0.000000 0.000003 3.000010 -5.000228 7.999241 -0.000104 2.567898 -181.651354 -2.027939 -179.999991 0.000005 -1.156004 167.527438 -0.193329 -0.675766 -0.000006 -0.000005 0.231952 72.100549 6.776214 2.227669 25.464537 -7.355617 0.002548 2.192079 -180.643545 5.550677 -0.000004 -0.000004 -1.475970 -14.893349 5.143376 0.912017 -0.000010 0.000000 -0.296284 74.522609 -7.637646 0.549185 25.456960 7.355625 -0.000005 
50.766201 -13.926313 93.957596 -7.345906 1.301463 -2.978213 -0.265368 -0.091613 -0.003743 3.472099 -0.183388 -0.007012 5.117176 -0.183459 -0.004812 20.395372 -1.225324 0.529329 -15.616504 2.396073 0.583198 -21.304354 -75.761141 -24.920372 126.156026 -100.129016 65.783867 0.000000 0.000014 -0.000001 126.047808 17.630655 -49.798469 0.000001 0.000005 -2.999990 -5.000271 -7.998731 0.000211 0.010499 47.916301 -1.449904 -73.541316 129.729772 83.038646 -0.000002 -0.000007 0.000004 110.224254 -1.977985 8.982792 -0.000001 0.000004 3.000010 -5.000224 7.999242 -0.000101 2.512756 -181.628459 -2.014552 -179.999991 0.000005 -1.154994 167.498027 -0.200135 -0.677380 -0.000006 -0.000005 0.230565 72.064090 6.772656 2.240118 25.464540 -7.355617 0.002548 2.263069 -180.633519 5.538124 -0.000005 -0.000004 -1.477101 -14.852847 5.167557 0.911406 -0.000009 0.000001 -0.294393 74.522637 -7.638647 0.552749 25.456962 7.355625 -0.000005 
50.746899 -13.930117 93.956291 -7.349075 1.341582 -3.288677 -0.263876 -0.087685 -0.011667 3.475068 -0.175491 -0.022873 5.120145 -0.175753 -0.020767 20.399784 -1.607499 0.740284 -15.569951 2.914323 0.799776 -21.596110 -75.877480 -25.233217 127.601335 -100.473367 67.239169 -0.000001 0.000014 -0.000001 126.136286 17.656034 -49.964067 -0.000001 0.000006 -2.999990 -5.000268 -7.998731 0.000210 0.139857 47.682111 -1.643165 -73.801382 130.173393 82.870467 0.000001 -0.000006 0.000002 109.676855 -1.899465 8.657443 -0.000001 0.000002 3.000010 -5.000223 7.999238 -0.000104 2.462860 -181.607531 -2.000582 -179.999991 0.000005 -1.153996 167.476307 -0.209880 -0.679624 -0.000005 -0.000005 0.228998 72.023675 6.770289 2.249294 25.464540 -7.355617 0.002547 2.336139 -180.627508 5.522792 -0.000005 -0.000004 -1.478281 -14.811748 5.191769 0.910664 -0.000009 0.000001 -0.292704 74.525116 -7.640981 0.560498 25.456964 7.355625 -0.000005 
50.741699 -13.911716 93.955200 -7.353755 1.385891 -3.599210 -0.261626 -0.084367 -0.019877 3.479545 -0.168838 -0.039301 5.124632 -0.169297 -0.037273 20.403911 -1.986741 0.952889 -15.525455 3.426236 1.017660 -21.887536 -75.996066 -25.545392 128.947838 -100.809924 68.613758 -0.000001 0.000014 -0.000001 126.217716 17.676473 -50.107859 -0.000001 0.000004 -2.999987 -5.000268 -7.998731 0.000210 0.249306 47.437132 -1.812936 -74.031130 130.621931 82.673573 0.000001 -0.000005 0.000003 109.108632 -1.824564 8.335127 0.000001 0.000002 3.000008 -5.000225 7.999240 -0.000104 2.419285 -181.590606 -1.986293 -179.999991 0.000005 -1.152999 167.463999 -0.224512 -0.681927 -0.000007 -0.000005 0.227211 71.978617 6.769218 2.255055 25.464540 -7.355618 0.002548 2.411505 -180.625459 5.504130 -0.000005 -0.000004 -1.479529 -14.770146 5.215999 0.909789 -0.000008 0.000001 -0.291241 74.530444 -7.644815 0.573039 25.456959 7.355625 -0.000005 
50.751598 -13.905816 93.954903 -7.360182 1.435102 -3.909677 -0.258581 -0.081759 -0.028451 3.485625 -0.163641 -0.056455 5.130712 -0.164305 -0.054487 20.409025 -2.363029 1.167736 -15.484449 3.931389 1.237591 -22.179784 -76.118094 -25.858116 130.211696 -101.137446 69.924895 -0.000001 0.000014 -0.000002 126.291837 17.690482 -50.230277 -0.000000 0.000007 -2.999984 -5.000270 -7.998730 0.000212 0.337369 47.180109 -1.957441 -74.225892 131.075729 82.443477 -0.000003 -0.000005 0.000004 108.517506 -1.754142 8.014973 -0.000001 0.000006 3.000011 -5.000226 7.999238 -0.000105 2.383045 -181.578653 -1.971887 -179.999991 0.000005 -1.151005 167.462482 -0.242085 -0.683833 -0.000006 -0.000006 0.225162 71.928012 6.769634 2.256990 25.464540 -7.355619 0.002548 2.489350 -180.628423 5.481553 -0.000005 -0.000004 -1.480839 -14.728342 5.240219 0.908790 -0.000008 0.000001 -0.290033 74.539302 -7.650147 0.590714 25.456962 7.355625 -0.000005 
